# xmcd
#
# Track frame offsets: 
#        150
#        13307
#        25627
#        37160
#        49252
#        62480
#        73280
#        86182
#        97240
#        108505
#        121107
#        134785
#        150235
#        160900
#        173675
#        186412
#        199502
#        213030
#        224282
#        236082
#        247272
#        259140
#        271812
#
# Disc length: 3801 seconds
#
# Revision: 0
# Processed by: cddbd v1.5.1PL0 Copyright (c) Steve Scherf et al.
# Submitted via: ExactAudioCopy v0.95a4
#
DISCID=580ed717
DTITLE=George Morgan - Candy Kisses - Disc 8
DYEAR=1900
DGENRE=Country
TTITLE0=Yesterday's Roses
TTITLE1=Bouquet Of Roses
TTITLE2=Teardrops On The Roses
TTITLE3=A Petal From A Faded Rose
TTITLE4=The Convict And The Rose
TTITLE5=Roses
TTITLE6=One Rose (Is All It Takes To Say I Love You)
TTITLE7=The Violet And The Rose
TTITLE8=The One Rose (That's Left In My Heart)
TTITLE9=Roses Are Red (My Love)
TTITLE10=By The River Of The Roses
TTITLE11=A Picture That's New
TTITLE12=Bring Your Roses To Her Now
TTITLE13=Red Roses For A Blue Lady
TTITLE14=It's All Coming Home To You But Me
TTITLE15=Not From My World
TTITLE16=Saving All My Love (For You) (& Marion Worth)
TTITLE17=Home Is Where The Heart Is
TTITLE18=No Man Should Hurt As Much As I Do
TTITLE19=There Goes My World
TTITLE20=Married (& Marion Worth)
TTITLE21=The Wheel Of Hurt (& Marion Worth)
TTITLE22=Speak Well Of Me
EXTD=
EXTT0=
EXTT1=
EXTT2=
EXTT3=
EXTT4=
EXTT5=
EXTT6=
EXTT7=
EXTT8=
EXTT9=
EXTT10=
EXTT11=
EXTT12=
EXTT13=
EXTT14=
EXTT15=
EXTT16=
EXTT17=
EXTT18=
EXTT19=
EXTT20=
EXTT21=
EXTT22=
PLAYORDER=
